# xmcd CD database file
#
# Track frame offsets:
#	187
#	16935
#	36497
#	57977
#	74615
#	92682
#	107787
#	137675
#	151500
#	166482
#	182927
#	201472
#
# Disc length: 2918 seconds
#
# Revision: 0
# Processed by: cddbd v1.4PL0 Copyright (c) Steve Scherf et al.
# Submitted via: CDex 1.50beta9
#
DISCID=a90b640c
DTITLE=Ella Fitzgerald - Ella in Hamburg
DYEAR=1965
DGENRE=Jazz
TTITLE0=Walk Right In
TTITLE1=That Old Black Magic
TTITLE2=Body And Soul
TTITLE3=Here's That Rainy Day
TTITLE4=And The Angel Sing
TTITLE5=A Hard Day's Night
TTITLE6=Do Nothin' Till You Hear From Me/ Mood Indigo - It Don't Mean A Thing
TTITLE7=The Boy From Ipanema
TTITLE8=Don't Rain On My Parade
TTITLE9=Angel Eyes
TTITLE10=Smooth Sailing
TTITLE11=Old McDonald Had A Farm
EXTD=YEAR: 1965
EXTT0=
EXTT1=
EXTT2=
EXTT3=
EXTT4=
EXTT5=
EXTT6=
EXTT7=
EXTT8=
EXTT9=
EXTT10=
EXTT11=
PLAYORDER=
